<?xml version="1.0" encoding="UTF-8"?>
<svg width="472px" height="58px" viewBox="0 0 472 58" version="1.1" xmlns="http://www.w3.org/2000/svg" xmlns:xlink="http://www.w3.org/1999/xlink">
    <title>LOGIC-IMMO</title>
    <g id="Welcome" stroke="none" stroke-width="1" fill="none" fill-rule="evenodd">
        <g id="Desktop-HD-03" transform="translate(-181.000000, -126.000000)" fill-rule="nonzero">
            <g id="LOGIC-IMMO" transform="translate(181.497000, 126.022000)">
                <path d="M31.57,54.978 L31.57,43.12 L12.32,43.12 L12.32,1.078 L-4.26325641e-14,1.078 L-4.26325641e-14,54.978 L31.57,54.978 Z M59.598,56.056 C75.075,56.056 87.626,43.89 87.626,28.028 C87.626,12.166 75.075,1.42108547e-14 59.598,1.42108547e-14 C44.121,1.42108547e-14 31.57,12.166 31.57,28.028 C31.57,43.89 44.121,56.056 59.598,56.056 Z M59.598,44.044 C50.82,44.044 43.89,37.653 43.89,28.028 C43.89,18.403 50.82,12.012 59.598,12.012 C68.376,12.012 75.306,18.403 75.306,28.028 C75.306,37.653 68.376,44.044 59.598,44.044 Z M121.352,56.056 C136.444,56.056 147.917,46.046 147.917,29.568 L147.917,24.948 L120.89,24.948 L120.89,35.728 L135.289,35.728 C133.364,40.887 128.667,44.044 121.506,44.044 C111.034,44.044 104.566,37.345 104.566,28.182 C104.566,18.711 111.342,12.012 120.428,12.012 C126.511,12.012 131.362,14.784 133.595,18.326 L144.067,12.32 C139.524,5.082 130.823,1.42108547e-14 120.505,1.42108547e-14 C104.643,1.42108547e-14 92.246,12.474 92.246,28.105 C92.246,43.582 104.412,56.056 121.352,56.056 Z M167.167,54.978 L167.167,1.078 L154.847,1.078 L154.847,54.978 L167.167,54.978 Z M202.125,56.056 C211.981,56.056 220.605,51.205 225.225,43.582 L214.599,37.422 C212.289,41.58 207.592,44.044 202.125,44.044 C192.577,44.044 186.417,37.653 186.417,28.028 C186.417,18.403 192.577,12.012 202.125,12.012 C207.592,12.012 212.212,14.476 214.599,18.634 L225.225,12.474 C220.528,4.851 211.904,1.42108547e-14 202.125,1.42108547e-14 C185.878,1.42108547e-14 174.097,12.166 174.097,28.028 C174.097,43.89 185.878,56.056 202.125,56.056 Z" id="LOGIC" fill="#2B2B2B"></path>
                <polygon id="-" fill="#1695E5" points="259.49 37.499 259.49 26.411 230.23 26.411 230.23 37.499"></polygon>
                <path d="M281.05,54.978 L281.05,1.078 L268.73,1.078 L268.73,54.978 L281.05,54.978 Z M302.61,54.978 L302.61,23.639 L316.547,46.508 L317.933,46.508 L331.87,23.639 L331.87,54.978 L344.19,54.978 L344.19,1.078 L331.87,1.078 L317.24,25.025 L302.61,1.078 L290.29,1.078 L290.29,54.978 L302.61,54.978 Z M365.75,54.978 L365.75,23.639 L379.687,46.508 L381.073,46.508 L395.01,23.639 L395.01,54.978 L407.33,54.978 L407.33,1.078 L395.01,1.078 L380.38,25.025 L365.75,1.078 L353.43,1.078 L353.43,54.978 L365.75,54.978 Z M442.288,56.056 C457.765,56.056 470.316,43.89 470.316,28.028 C470.316,12.166 457.765,1.42108547e-14 442.288,1.42108547e-14 C426.811,1.42108547e-14 414.26,12.166 414.26,28.028 C414.26,43.89 426.811,56.056 442.288,56.056 Z M442.288,44.044 C433.51,44.044 426.58,37.653 426.58,28.028 C426.58,18.403 433.51,12.012 442.288,12.012 C451.066,12.012 457.996,18.403 457.996,28.028 C457.996,37.653 451.066,44.044 442.288,44.044 Z" id="IMMO" fill="#2B2B2B"></path>
            </g>
        </g>
    </g>
</svg>