<?xml version="1.0" encoding="UTF-8"?>
<svg width="48px" height="48px" viewBox="0 0 48 48" version="1.1" xmlns="http://www.w3.org/2000/svg" xmlns:xlink="http://www.w3.org/1999/xlink">
    <title>Group 2</title>
    <g id="Welcome" stroke="none" stroke-width="1" fill="none" fill-rule="evenodd">
        <g id="LI_25ans_Landing_Desktop_Accueil" transform="translate(-1379.000000, -11.000000)">
            <g id="Group-2" transform="translate(1379.000000, 11.000000)">
                <circle id="Oval-Copy" fill="#AE924E" cx="24" cy="24" r="24"></circle>
                <path d="M38.8510279,11 L38.8510279,15.8319328 L30.4799453,15.8319328 L30.2501509,18.9243697 L32.121334,18.9243697 C36.3889448,18.9243697 40,21.5014006 40,26.4621849 C40,31.2327504 36.3569785,33.7988653 32.1363506,33.9886439 L32.1509434,34 L8.22899374,34 L8.22899374,30.2633053 L15.9166408,22.4033613 C17.2578898,21.0504202 18.2392916,19.7296919 18.2392916,18.4089636 C18.2392916,16.9915966 17.3233166,16.0252101 15.7857872,16.0252101 C14.182831,16.0252101 13.0378623,17.0560224 12.4163079,18.4733894 L12.4163079,18.4733894 L8,15.9285714 C9.47210262,12.5784314 12.5471614,11 15.7203604,11 C19.8095344,11 23.4734342,13.6414566 23.4734342,18.1834734 C23.4734342,20.8893557 22.0013316,23.2086835 19.9076746,25.2703081 L19.9076746,25.2703081 L16.1129211,29.0392157 L24.189,29.039 L26.8679245,26.4240394 L29.5106119,29.0046314 C30.3552531,28.9847371 31.0613549,28.9747899 31.6289174,28.9747899 C33.7955505,28.9747899 34.747556,27.8473389 34.747556,26.4621849 C34.747556,25.0770308 33.7955505,23.9495798 31.7930563,23.9495798 L31.7930563,23.9495798 L24.6037736,23.9495798 L25.5557791,11 L38.8510279,11 Z" id="Combined-Shape-Copy-2" fill="#2B2B2B" fill-rule="nonzero"></path>
                <path d="M38.8510279,10 L38.8510279,14.8319328 L30.4799453,14.8319328 L30.2501509,17.9243697 L32.121334,17.9243697 C36.3889448,17.9243697 40,20.5014006 40,25.4621849 C40,30.2327504 36.3569785,32.7988653 32.1363506,32.9886439 L32.1509434,33 L8.22899374,33 L8.22899374,29.2633053 L15.9166408,21.4033613 C17.2578898,20.0504202 18.2392916,18.7296919 18.2392916,17.4089636 C18.2392916,15.9915966 17.3233166,15.0252101 15.7857872,15.0252101 C14.182831,15.0252101 13.0378623,16.0560224 12.4163079,17.4733894 L12.4163079,17.4733894 L8,14.9285714 C9.47210262,11.5784314 12.5471614,10 15.7203604,10 C19.8095344,10 23.4734342,12.6414566 23.4734342,17.1834734 C23.4734342,19.8893557 22.0013316,22.2086835 19.9076746,24.2703081 L19.9076746,24.2703081 L16.1129211,28.0392157 L24.189,28.039 L26.8679245,25.4240394 L29.5106119,28.0046314 C30.3552531,27.9847371 31.0613549,27.9747899 31.6289174,27.9747899 C33.7955505,27.9747899 34.747556,26.8473389 34.747556,25.4621849 C34.747556,24.0770308 33.7955505,22.9495798 31.7930563,22.9495798 L31.7930563,22.9495798 L24.6037736,22.9495798 L25.5557791,10 L38.8510279,10 Z" id="Combined-Shape-Copy-3" fill="#FFFFFF" fill-rule="nonzero"></path>
                <path d="M17.4698163,42.8846154 L17.7637795,41.978022 L19.9475066,41.978022 L20.2414698,42.8846154 L21.7112861,42.8846154 L19.712336,37.1153846 L17.9989501,37.1153846 L16,42.8846154 L17.4698163,42.8846154 Z M19.544357,40.7417582 L18.1669291,40.7417582 L18.855643,38.6236264 L19.544357,40.7417582 Z M23.5590551,42.8846154 L23.5590551,39.7527473 L25.8267717,42.8846154 L26.8346457,42.8846154 L26.8346457,37.1153846 L25.4908136,37.1153846 L25.4908136,40.2472527 L23.2230971,37.1153846 L22.2152231,37.1153846 L22.2152231,42.8846154 L23.5590551,42.8846154 Z M29.816273,43 C31.0929134,43 32,42.3406593 32,41.228022 C32,40.0082418 31.0005249,39.7032967 30.1102362,39.4395604 C29.1947507,39.1675824 29.0519685,38.9862637 29.0519685,38.7225275 C29.0519685,38.4917582 29.2619423,38.2857143 29.6818898,38.2857143 C30.2194226,38.2857143 30.4965879,38.5412088 30.6981627,38.9532967 L31.832021,38.3021978 C31.4036745,37.4532967 30.647769,37 29.6818898,37 C28.6656168,37 27.7081365,37.6428571 27.7081365,38.7554945 C27.7081365,39.8598901 28.5648294,40.271978 29.4383202,40.510989 C30.32021,40.75 30.656168,40.8901099 30.656168,41.2445055 C30.656168,41.467033 30.4965879,41.7142857 29.8582677,41.7142857 C29.1947507,41.7142857 28.8335958,41.3928571 28.623622,40.9148352 L27.4645669,41.5741758 C27.792126,42.4230769 28.5816273,43 29.816273,43 Z" id="ANS" fill="#FFFFFF" fill-rule="nonzero"></path>
            </g>
        </g>
    </g>
</svg>