<?xml version="1.0" encoding="UTF-8"?>
<svg width="40px" height="32px" viewBox="0 0 40 32" version="1.1" xmlns="http://www.w3.org/2000/svg" xmlns:xlink="http://www.w3.org/1999/xlink">
    <g id="Welcome" stroke="none" stroke-width="1" fill="#2B2B2B" fill-rule="evenodd">
        <g id="wind" transform="translate(-703.000000, -889.000000)" fill="#2B2B2B">
            <g transform="translate(703.000000, 889.000000)">
                <path d="M34.2695206,6 C31.1090716,6 28.5390411,8.69165625 28.5390411,12 C28.5390411,12.828375 29.1797804,13.5 29.971661,13.5 C30.7635416,13.5 31.4042808,12.828375 31.4042808,12 C31.4042808,10.3454062 32.6899676,9 34.2695206,9 C35.8490735,9 37.1347603,10.3454062 37.1347603,12 C37.1347603,13.6545938 35.8490735,15 34.2695206,15 L1.43261986,15 C0.640739232,15 0,15.671625 0,16.5 C0,17.328375 0.640739232,18 1.43261986,18 L34.2695206,18 C37.4299695,18 40,15.3083437 40,12 C40,8.69165625 37.4299695,6 34.2695206,6 Z" id="Path" fill="#000000" fill-rule="nonzero"></path>
                <path d="M20.2222222,0 C17.0356875,0 14.4444444,2.69165625 14.4444444,6 C14.4444444,6.828375 15.0904722,7.5 15.8888889,7.5 C16.6873056,7.5 17.3333333,6.828375 17.3333333,6 C17.3333333,4.34540625 18.6296319,3 20.2222222,3 C21.8148125,3 23.1111111,4.34540625 23.1111111,6 C23.1111111,7.65459375 21.8148125,9 20.2222222,9 L1.44444444,9 C0.646027778,9 0,9.671625 0,10.5 C0,11.328375 0.646027778,12 1.44444444,12 L20.2222222,12 C23.4087569,12 26,9.30834375 26,6 C26,2.69165625 23.4087569,0 20.2222222,0 Z" id="Path" fill="#000000" fill-rule="nonzero"></path>
                <path d="M20.2222222,20 L1.44444444,20 C0.646027778,20 0,20.671625 0,21.5 C0,22.328375 0.646027778,23 1.44444444,23 L20.2222222,23 C21.8148125,23 23.1111111,24.3454062 23.1111111,26 C23.1111111,27.6545938 21.8148125,29 20.2222222,29 C18.6296319,29 17.3333333,27.6545938 17.3333333,26 C17.3333333,25.171625 16.6873056,24.5 15.8888889,24.5 C15.0904722,24.5 14.4444444,25.171625 14.4444444,26 C14.4444444,29.3083437 17.0356875,32 20.2222222,32 C23.4087569,32 26,29.3083437 26,26 C26,22.6916563 23.4087569,20 20.2222222,20 Z" id="Path" fill="#000000" fill-rule="nonzero"></path>
            </g>
        </g>
    </g>
</svg>